<svg width="112" height="60" viewBox="0 0 112 60" fill="none" xmlns="http://www.w3.org/2000/svg">
<path d="M110.161 48.3708C112.837 48.6171 111.893 51.8033 111.584 55.1589C111.329 57.9311 110.208 57.0804 88.3919 55.0716C85.5097 54.8061 86.3604 54.0165 86.3604 17.7511C86.3604 15.0645 89.6199 15.7108 92.9895 15.7108C95.7914 15.7108 95.0298 16.1265 95.0298 44.9366C95.0298 47.6564 97.0805 47.1655 110.161 48.3708Z" fill="#F15627"/>
<path fill-rule="evenodd" clip-rule="evenodd" d="M89.136 39.6647C89.5116 39.628 89.8452 39.9023 89.8819 40.2779C89.9186 40.6534 89.6443 40.9871 89.2688 41.0237C88.8932 41.0604 88.5596 40.7862 88.5229 40.4106C88.4862 40.035 88.7604 39.7014 89.136 39.6647Z" fill="white"/>
<path d="M89.6164 41.518H88.7884C88.6842 41.518 88.5997 41.6025 88.5997 41.7067V52.219C88.5997 52.3232 88.6842 52.4076 88.7884 52.4076H89.6164C89.7206 52.4076 89.805 52.3232 89.805 52.219V41.7067C89.805 41.6025 89.7206 41.518 89.6164 41.518Z" fill="white"/>
<path fill-rule="evenodd" clip-rule="evenodd" d="M89.136 39.6647C89.5116 39.628 89.8452 39.9023 89.8819 40.2779C89.9186 40.6534 89.6443 40.9871 89.2688 41.0237C88.8932 41.0604 88.5596 40.7862 88.5229 40.4106C88.4862 40.035 88.7604 39.7014 89.136 39.6647Z" fill="white"/>
<path d="M89.6164 41.518H88.7884C88.6842 41.518 88.5997 41.6025 88.5997 41.7067V52.219C88.5997 52.3232 88.6842 52.4076 88.7884 52.4076H89.6164C89.7206 52.4076 89.805 52.3232 89.805 52.219V41.7067C89.805 41.6025 89.7206 41.518 89.6164 41.518Z" fill="white"/>
<path fill-rule="evenodd" clip-rule="evenodd" d="M29.1455 14.5577L30.3491 18.5981L34.4069 20.7938L38.4333 22.9721C47.2075 27.7199 50.4741 38.6864 45.7245 47.4606C40.9767 56.2348 30.0102 59.4996 21.236 54.7518C12.467 50.0074 9.2005 39.0532 13.9343 30.2808L16.1231 26.2369L18.3188 22.1791L17.1153 18.1387L14.7152 10.0789L13.8907 7.312L10.7639 8.24304L8.65899 8.87015C7.89739 9.09723 7.46068 9.90426 7.68777 10.6659C7.91485 11.4275 8.72188 11.8642 9.48349 11.6371L11.5884 11.01L14.9195 22.1965L11.3264 28.8361L11.3211 28.8449C5.78899 39.0672 9.59354 51.8416 19.8158 57.3737C30.0382 62.9059 42.8126 59.1013 48.3447 48.879C53.8768 38.6567 50.0723 25.8823 39.85 20.3502L33.2016 16.7535L29.8705 5.56694L31.9754 4.93983C32.737 4.71275 33.1737 3.90572 32.9466 3.14412C32.7195 2.38425 31.9125 1.94581 31.1509 2.17289L29.046 2.79999L25.9192 3.73104L26.7437 6.49798L29.1438 14.5577H29.1455Z" fill="#44AEE3"/>
<path fill-rule="evenodd" clip-rule="evenodd" d="M22.2316 36.7911C23.685 36.3579 24.513 34.8277 24.0798 33.3744C23.6465 31.921 22.1163 31.093 20.663 31.5262C19.2097 31.9595 18.3817 33.4897 18.8149 34.943C19.2481 36.3963 20.7783 37.2243 22.2316 36.7911Z" fill="#16A99A"/>
<path fill-rule="evenodd" clip-rule="evenodd" d="M40.2762 27.9697C40.1801 27.8789 40.0718 27.664 39.9705 27.7496C26.8869 38.9519 23.416 44.1993 17.3179 42.4211C16.8253 42.2778 16.3275 42.4158 15.9781 42.7914C15.6287 43.167 15.5292 43.6753 15.7091 44.1556C16.9406 47.4466 19.3215 50.3271 22.6562 52.1316C29.984 56.0968 39.1373 53.3701 43.1043 46.0439C46.411 39.9336 45.0642 32.5534 40.2762 27.9697ZM36.4786 50.6066C27.245 54.7378 21.8089 48.9524 21.8089 48.9524L41.5531 33.4984C41.5531 33.4984 46.2782 44.7268 36.4786 50.6066Z" fill="#16A99A"/>
<path fill-rule="evenodd" clip-rule="evenodd" d="M30.9395 32.1324C32.3929 31.6992 33.2209 30.169 32.7876 28.7156C32.3544 27.2623 30.8242 26.4343 29.3709 26.8675C27.9175 27.3007 27.0896 28.8309 27.5228 30.2843C27.956 31.7376 29.4862 32.5656 30.9395 32.1324Z" fill="#16A99A"/>
<path fill-rule="evenodd" clip-rule="evenodd" d="M21.809 16.7203C22.9898 16.3692 23.6623 15.1255 23.3112 13.9446C22.9601 12.7638 21.7164 12.0913 20.5355 12.4424C19.3547 12.7935 18.6822 14.0372 19.0333 15.2181C19.3844 16.3989 20.6281 17.0714 21.809 16.7203Z" fill="#16A99A"/>
<path fill-rule="evenodd" clip-rule="evenodd" d="M22.0814 8.8422C23.2623 8.49109 23.9348 7.24736 23.5837 6.06652C23.2326 4.88568 21.9889 4.21316 20.808 4.56427C19.6272 4.91538 18.9546 6.1591 19.3058 7.33994C19.6569 8.52079 20.9006 9.19331 22.0814 8.8422Z" fill="#16A99A"/>
<path fill-rule="evenodd" clip-rule="evenodd" d="M16.551 4.91712C17.7319 4.56601 18.4044 3.32228 18.0533 2.14144C17.7022 0.960601 16.4585 0.288081 15.2776 0.639189C14.0968 0.990297 13.4243 2.23402 13.7754 3.41486C14.1265 4.59571 15.3702 5.26823 16.551 4.91712Z" fill="#16A99A"/>
<path d="M12.156 44.6396C10.9158 44.2832 9.82403 43.6002 8.49995 43.6649C6.95053 43.7417 5.37316 44.3583 4.09101 45.2055C0.918806 47.3017 -0.476893 51.0189 0.143223 54.7169C0.497825 56.8305 3.78706 56.2786 3.43246 54.1562C2.99925 51.5692 3.99319 49.0188 6.34089 47.7227C7.00992 47.3541 8.12438 46.8458 8.91394 46.982C9.55676 47.0938 10.3166 47.5655 10.9525 47.7489C13.0015 48.3393 14.219 45.2317 12.156 44.6378V44.6396Z" fill="#44AEE3"/>
<path d="M48.0651 33.1159C50.9089 34.3491 54.165 35.4811 57.1555 34.0137C59.7006 32.7665 60.7889 30.0328 59.8945 27.3916C59.208 25.3618 56.1773 26.7593 56.8603 28.7786C57.449 30.5166 55.2952 31.3638 53.9711 31.3778C52.3151 31.3953 50.7552 30.6494 49.2669 30.0048C47.293 29.1489 46.0982 32.2634 48.0634 33.1159H48.0651Z" fill="#44AEE3"/>
<path d="M76.8473 36.262C79.2806 34.6951 81.9252 33.5736 81.9252 30.9517C81.9252 19.8175 82.6205 15.6007 79.885 15.6007C78.6308 15.6007 77.3923 15.5116 76.332 15.5378C76.3285 16.7239 76.3232 18.2471 76.3232 20.2507C76.3232 21.477 74.8524 21.201 73.3152 21.194C73.3886 24.9269 73.3327 28.2127 71.5422 29.3656C63.8685 34.3073 61.6605 36.4104 61.6605 33.6889C61.6605 24.0937 62.3645 21.3075 59.6203 21.3075C56.2507 21.3075 52.9911 20.6612 52.9911 23.3478C52.9911 26.0344 52.9841 28.4729 52.9754 30.7351C53.3056 30.7927 53.6357 30.8241 53.9676 30.8189C54.7572 30.8102 55.8192 30.4556 56.2315 29.8756C56.4236 29.6031 56.4585 29.3114 56.3363 28.9533C55.8664 27.5646 56.7503 26.3418 57.8735 25.9628C58.9967 25.582 60.0447 26.0955 60.422 27.21C61.416 30.1481 60.174 33.1509 57.4018 34.5099C56.3188 35.0409 55.2078 35.2593 54.0864 35.2593C53.7091 35.2593 53.3318 35.2278 52.9527 35.1824C52.8234 55.5851 52.544 56.5651 55.0314 56.5651C58.401 56.5651 61.6605 57.2114 61.6605 54.5248C61.6605 49.0975 61.0928 46.4057 63.3759 44.9366C65.2572 43.7261 67.1333 42.0561 69.0408 43.5898C71.0339 45.1934 73.2576 46.4633 73.2576 49.0206C73.2576 52.8426 72.4051 56.9616 75.2979 56.9616C78.6674 56.9616 81.927 57.6079 81.927 54.9213C81.927 45.382 82.4563 43.2527 80.3374 41.5495C77.6822 39.4149 74.5852 37.7188 76.849 36.2602L76.8473 36.262ZM80.1942 29.8774C80.1942 29.9822 80.1086 30.066 80.0055 30.066H79.1793C79.0744 30.066 78.9906 29.9804 78.9906 29.8774V19.3668C78.9906 19.262 79.0762 19.1782 79.1793 19.1782H80.0055C80.1103 19.1782 80.1942 19.2638 80.1942 19.3668V29.8774ZM79.5251 17.3231C79.9007 17.2864 80.2343 17.5606 80.271 17.9362C80.3077 18.3118 80.0334 18.6454 79.6579 18.6821C79.2823 18.7188 78.9487 18.4445 78.912 18.069C78.8753 17.6934 79.1496 17.3598 79.5251 17.3231Z" fill="#EE3063"/>
<path d="M75.5599 9.99529C75.8865 11.2495 75.7974 12.046 75.7974 19.5695C75.7974 20.8115 74.2899 20.5128 72.7318 20.5128C71.4636 20.5128 71.7885 19.6743 71.7885 12.3657C71.7885 11.0818 71.4409 10.0914 70.171 5.21777C69.86 4.02471 69.1735 4.03519 68.7281 5.18459C68.7368 5.16188 66.1778 11.1691 66.1778 12.7238C66.1778 12.6993 66.2179 19.0193 66.1254 19.0193H62.1688C61.8597 19.0193 62.4169 12.6941 61.7234 10.9001L59.5137 5.18459C58.3573 2.1958 57.4996 7.40827 56.6926 10.5089C56.3694 11.7473 56.455 12.3814 56.455 19.5695C56.455 20.8115 54.9476 20.5128 53.3894 20.5128C52.1142 20.5128 52.4461 19.7302 52.4461 11.8521C52.4461 10.5822 52.5824 10.3901 54.9738 1.20885C55.2917 -0.00867117 56.4044 0.295273 60.9793 0.295273C62.2265 0.295273 62.347 1.39052 63.7829 5.10423C64.2685 6.36193 64.7856 4.27101 65.9821 1.17566C66.4346 0.00530327 67.4722 0.295273 72.089 0.295273C73.3641 0.295273 73.1807 0.864732 75.5599 9.99529Z" fill="#44AEE3"/>
<path d="M89.6304 0.0315091C90.8898 0.0315091 90.5737 3.31725 90.5737 7.9393C90.5737 9.197 89.9588 9.6634 86.4075 14.1754C85.6093 15.1886 85.8241 16.5895 85.8241 19.5695C85.8241 20.8115 84.3166 20.5128 82.7585 20.5128C81.5025 20.5128 81.8152 19.1922 81.8152 15.9676C81.8152 14.7099 81.1357 14.3117 77.2019 10.1874C76.339 9.2826 76.5503 8.12097 76.5503 5.02388C76.5503 3.7819 78.0578 4.08061 79.616 4.08061C80.8667 4.08061 80.5592 5.63002 80.5592 6.95585C80.5592 8.19259 81.5252 8.91227 83.0222 10.4827C83.948 11.4539 84.8511 9.66864 85.9796 8.23451C86.7552 7.24931 86.563 4.0317 86.563 0.974785C86.563 -0.267195 88.0705 0.0315091 89.6287 0.0315091H89.6304Z" fill="#44AEE3"/>
<path fill-rule="evenodd" clip-rule="evenodd" d="M55.1048 11.7717C55.3266 11.7508 55.524 11.9115 55.545 12.1333C55.5659 12.3552 55.4052 12.5526 55.1834 12.5735C54.9615 12.5945 54.7641 12.4338 54.7432 12.2119C54.7222 11.9901 54.8829 11.7927 55.1048 11.7717Z" fill="white"/>
<path d="M55.3109 12.867H54.9772C54.873 12.867 54.7886 12.9514 54.7886 13.0556V19.1083C54.7886 19.2125 54.873 19.297 54.9772 19.297H55.3109C55.4151 19.297 55.4995 19.2125 55.4995 19.1083V13.0556C55.4995 12.9514 55.4151 12.867 55.3109 12.867Z" fill="white"/>
<path fill-rule="evenodd" clip-rule="evenodd" d="M89.2007 0.885627C89.4226 0.864665 89.6199 1.02537 89.6409 1.24722C89.6619 1.46906 89.5012 1.66645 89.2793 1.68741C89.0575 1.70837 88.8601 1.54767 88.8391 1.32582C88.8182 1.10398 88.9789 0.906589 89.2007 0.885627Z" fill="white"/>
<path d="M89.4068 1.98087H89.0732C88.969 1.98087 88.8845 2.06533 88.8845 2.16952V8.22221C88.8845 8.3264 88.969 8.41086 89.0732 8.41086H89.4068C89.511 8.41086 89.5955 8.3264 89.5955 8.22221V2.16952C89.5955 2.06533 89.511 1.98087 89.4068 1.98087Z" fill="white"/>
</svg>
