<svg width="328" height="77" viewBox="0 0 328 77" fill="none" xmlns="http://www.w3.org/2000/svg">
<path d="M304.296 37.8647C315.521 42.148 327.502 44.4849 327.502 57.6827C327.502 66.4647 320.348 73.608 311.553 73.608C287.765 73.608 292.252 75.8169 292.252 65.0886C292.252 61.5618 292.794 62.4665 311.553 62.4665C316.845 62.4665 318.205 55.101 313.264 53.2131C301.841 48.8535 290.263 46.5816 290.263 33.6914C290.263 25.0845 297.275 18.0827 305.894 18.0827C324.536 18.0827 322.378 16.3788 322.378 26.602C322.378 30.0996 319.24 29.2241 305.894 29.2241C300.953 29.2241 299.683 36.1025 304.298 37.8625L304.296 37.8647Z" fill="#1AA696"/>
<path fill-rule="evenodd" clip-rule="evenodd" d="M299.089 22.3255C299.64 22.3255 300.089 22.7723 300.089 23.3245C300.089 23.8767 299.642 24.3235 299.089 24.3235C298.536 24.3235 298.088 23.8767 298.088 23.3245C298.088 22.7723 298.536 22.3255 299.089 22.3255Z" fill="white"/>
<path d="M295.575 39.2139C295.352 39.2139 295.143 39.0747 295.067 38.8525C291.351 28.0163 297.032 24.53 297.277 24.3863C297.533 24.2359 297.861 24.3212 298.012 24.5772C298.16 24.8308 298.077 25.1586 297.823 25.309C297.612 25.4369 292.668 28.5461 296.083 38.5045C296.18 38.7851 296.029 39.0882 295.748 39.1847C295.69 39.2049 295.631 39.2139 295.575 39.2139Z" fill="white"/>
<path fill-rule="evenodd" clip-rule="evenodd" d="M299.089 22.3255C299.64 22.3255 300.089 22.7723 300.089 23.3245C300.089 23.8767 299.642 24.3235 299.089 24.3235C298.536 24.3235 298.088 23.8767 298.088 23.3245C298.088 22.7723 298.536 22.3255 299.089 22.3255Z" fill="white"/>
<path d="M295.575 39.2139C295.352 39.2139 295.143 39.0747 295.067 38.8525C291.351 28.0163 297.032 24.53 297.277 24.3863C297.533 24.2359 297.861 24.3212 298.012 24.5772C298.16 24.8308 298.077 25.1586 297.823 25.309C297.612 25.4369 292.668 28.5461 296.083 38.5045C296.18 38.7851 296.029 39.0882 295.748 39.1847C295.69 39.2049 295.631 39.2139 295.575 39.2139Z" fill="white"/>
<path d="M122.034 70.5863C122.034 74.039 117.838 73.2084 113.502 73.2084C109.864 73.2084 110.876 72.6494 110.876 32.4231C110.876 28.9704 115.071 29.801 119.408 29.801C123.045 29.801 122.034 30.36 122.034 70.5863Z" fill="#87308C"/>
<path fill-rule="evenodd" clip-rule="evenodd" d="M119.336 31.6733C119.819 31.6261 120.249 31.9786 120.296 32.4612C120.343 32.9439 119.99 33.3727 119.507 33.4198C119.023 33.4669 118.594 33.1145 118.547 32.6318C118.5 32.1492 118.852 31.7204 119.336 31.6733Z" fill="white"/>
<path d="M119.954 34.0573H118.888C118.754 34.0573 118.646 34.1659 118.646 34.2998V47.8096C118.646 47.9435 118.754 48.052 118.888 48.052H119.954C120.088 48.052 120.197 47.9435 120.197 47.8096V34.2998C120.197 34.1659 120.088 34.0573 119.954 34.0573Z" fill="white"/>
<path fill-rule="evenodd" clip-rule="evenodd" d="M119.336 31.6733C119.819 31.6261 120.249 31.9786 120.296 32.4612C120.343 32.9439 119.99 33.3727 119.507 33.4198C119.023 33.4669 118.594 33.1145 118.547 32.6318C118.5 32.1492 118.852 31.7204 119.336 31.6733Z" fill="white"/>
<path d="M119.954 34.0573H118.888C118.754 34.0573 118.646 34.1659 118.646 34.2998V47.8096C118.646 47.9435 118.754 48.052 118.888 48.052H119.954C120.088 48.052 120.197 47.9435 120.197 47.8096V34.2998C120.197 34.1659 120.088 34.0573 119.954 34.0573Z" fill="white"/>
<path d="M165.329 28.4676C168.281 30.452 167.508 36.9533 167.508 64.0514C167.508 67.4637 164.169 68.9633 160.109 71.7537C157.204 73.7471 156.04 73.2398 132.893 73.2398C129.257 73.2398 130.267 66.2402 130.267 33.6465C130.267 32.212 129.264 31.0245 127.162 31.0245C123.704 31.0245 124.536 26.8355 124.536 22.5051C124.536 18.9424 126.645 19.8831 149.929 19.8831C153.452 19.8831 155.498 21.8608 165.329 28.4698V28.4676ZM156.348 38.482C156.348 35.3369 153.538 33.972 151.325 32.4859C148.789 30.7798 145.82 31.0222 144.048 31.0222C140.521 31.0222 141.422 38.7671 141.422 59.4741C141.422 62.9604 145.431 62.0961 151.851 62.0961C157.465 62.0961 156.348 55.9361 156.348 38.482Z" fill="#16A99A"/>
<path fill-rule="evenodd" clip-rule="evenodd" d="M164.374 31.6733C164.857 31.6261 165.287 31.9786 165.334 32.4612C165.381 32.9439 165.028 33.3727 164.545 33.4198C164.061 33.4669 163.632 33.1145 163.585 32.6318C163.538 32.1492 163.891 31.7204 164.374 31.6733Z" fill="white"/>
<path d="M164.992 34.0573H163.926C163.792 34.0573 163.684 34.1659 163.684 34.2998V47.8096C163.684 47.9435 163.792 48.052 163.926 48.052H164.992C165.126 48.052 165.235 47.9435 165.235 47.8096V34.2998C165.235 34.1659 165.126 34.0573 164.992 34.0573Z" fill="white"/>
<path fill-rule="evenodd" clip-rule="evenodd" d="M164.374 31.6733C164.857 31.6261 165.287 31.9786 165.334 32.4612C165.381 32.9439 165.028 33.3727 164.545 33.4198C164.061 33.4669 163.632 33.1145 163.585 32.6318C163.538 32.1492 163.891 31.7204 164.374 31.6733Z" fill="white"/>
<path d="M164.992 34.0573H163.926C163.792 34.0573 163.684 34.1659 163.684 34.2998V47.8096C163.684 47.9435 163.792 48.052 163.926 48.052H164.992C165.126 48.052 165.235 47.9435 165.235 47.8096V34.2998C165.235 34.1659 165.126 34.0573 164.992 34.0573Z" fill="white"/>
<path d="M211.473 62.1635C214.917 62.48 213.703 66.5747 213.306 70.8871C212.977 74.4498 211.534 73.3565 183.456 70.7749C179.747 70.4337 180.842 69.419 180.842 22.8127C180.842 19.36 185.037 20.1906 189.374 20.1906C192.98 20.1906 192 20.7249 192 57.75C192 61.2453 194.639 60.6145 211.473 62.1635Z" fill="#F15627"/>
<path fill-rule="evenodd" clip-rule="evenodd" d="M184.414 50.9749C184.897 50.9278 185.327 51.2802 185.374 51.7629C185.421 52.2455 185.068 52.6743 184.585 52.7214C184.101 52.7686 183.672 52.4161 183.625 51.9335C183.578 51.4508 183.931 51.022 184.414 50.9749Z" fill="white"/>
<path d="M185.032 53.3567H183.966C183.832 53.3567 183.724 53.4653 183.724 53.5992V67.109C183.724 67.2429 183.832 67.3514 183.966 67.3514H185.032C185.166 67.3514 185.275 67.2429 185.275 67.109V53.5992C185.275 53.4653 185.166 53.3567 185.032 53.3567Z" fill="white"/>
<path fill-rule="evenodd" clip-rule="evenodd" d="M184.414 50.9749C184.897 50.9278 185.327 51.2802 185.374 51.7629C185.421 52.2455 185.068 52.6743 184.585 52.7214C184.101 52.7686 183.672 52.4161 183.625 51.9335C183.578 51.4508 183.931 51.022 184.414 50.9749Z" fill="white"/>
<path d="M185.032 53.3567H183.966C183.832 53.3567 183.724 53.4653 183.724 53.5992V67.109C183.724 67.2429 183.832 67.3514 183.966 67.3514H185.032C185.166 67.3514 185.275 67.2429 185.275 67.109V53.5992C185.275 53.4653 185.166 53.3567 185.032 53.3567Z" fill="white"/>
<path d="M243.932 72.1151C243.932 75.5678 239.737 74.7372 235.4 74.7372C231.889 74.7372 232.775 71.6908 232.775 57.5165C232.775 54.0235 229.328 54.6453 218.539 53.8618C215.396 53.6351 214.722 56.7667 213.598 59.6739C212.35 62.8931 208.737 60.6078 204.693 59.0453C201.34 57.75 202.943 56.2931 212.296 32.138C213.557 28.8806 209.256 29.6933 202.748 29.6933C199.29 29.6933 200.122 25.5043 200.122 21.1739C200.122 17.5933 201.711 18.5518 231.302 18.5541C235 18.5541 238.056 21.9596 241.907 25.1361C244.769 27.4955 243.93 28.0859 243.93 72.1174L243.932 72.1151ZM230.158 43.5331C233.795 43.798 232.777 38.5629 232.777 34.6725C232.777 31.1839 230.574 29.6933 227.563 29.6933C224.553 29.6933 223.82 33.2829 221.077 40.361C219.74 43.8159 225.374 43.1874 230.158 43.5353V43.5331Z" fill="#FAA627"/>
<path fill-rule="evenodd" clip-rule="evenodd" d="M240.915 28.4316C241.399 28.3845 241.828 28.7369 241.875 29.2196C241.923 29.7023 241.57 30.131 241.086 30.1782C240.603 30.2253 240.174 29.8729 240.126 29.3902C240.079 28.9076 240.432 28.4788 240.915 28.4316Z" fill="white"/>
<path d="M241.534 30.8157H240.468C240.334 30.8157 240.225 30.9243 240.225 31.0582V44.568C240.225 44.7019 240.334 44.8104 240.468 44.8104H241.534C241.668 44.8104 241.776 44.7019 241.776 44.568V31.0582C241.776 30.9243 241.668 30.8157 241.534 30.8157Z" fill="white"/>
<path fill-rule="evenodd" clip-rule="evenodd" d="M240.915 28.4316C241.399 28.3845 241.828 28.7369 241.875 29.2196C241.923 29.7023 241.57 30.131 241.086 30.1782C240.603 30.2253 240.174 29.8729 240.126 29.3902C240.079 28.9076 240.432 28.4788 240.915 28.4316Z" fill="white"/>
<path d="M241.534 30.8157H240.468C240.334 30.8157 240.225 30.9243 240.225 31.0582V44.568C240.225 44.7019 240.334 44.8104 240.468 44.8104H241.534C241.668 44.8104 241.776 44.7019 241.776 44.568V31.0582C241.776 30.9243 241.668 30.8157 241.534 30.8157Z" fill="white"/>
<path d="M285.937 48.3933C283.17 49.3541 287.864 50.8716 287.864 54.7778V66.1931C287.864 70.7884 278.622 75.3792 275.677 75.3792H253.249C249.533 75.3792 250.623 74.0098 250.623 30.241C250.623 28.7931 250.155 27.619 249.58 27.619C248.145 27.619 248.534 22.4625 248.534 19.0996C248.534 15.7367 250.488 16.4776 270.286 16.4776C273.808 16.4776 275.854 18.4553 285.686 25.0643C288.59 27.0174 287.864 29.3094 287.864 45.1045C287.864 46.5525 287.003 48.0251 285.937 48.3955V48.3933ZM275.769 63.5957C276.522 63.0794 276.704 61.0253 276.704 60.1139C276.704 56.6657 272.552 53.0425 269.103 54.2412L264.258 55.9227C260.798 57.1237 260.74 64.2378 264.404 64.2378C264.339 64.2378 274.254 64.6351 275.769 63.5957ZM276.704 35.081C276.704 31.9337 273.894 30.571 271.682 29.0849C269.146 27.3788 266.176 27.6212 264.404 27.6212C260.904 27.6212 261.778 30.9998 261.778 42.368C261.778 45.8655 265.211 43.7957 274.224 40.6663C277.104 39.6674 276.704 36.428 276.704 35.081Z" fill="#86318C"/>
<path fill-rule="evenodd" clip-rule="evenodd" d="M254.274 27.7133C254.757 27.6661 255.187 28.0186 255.234 28.5012C255.281 28.9839 254.928 29.4127 254.445 29.4598C253.961 29.5069 253.532 29.1545 253.485 28.6718C253.437 28.1892 253.79 27.7604 254.274 27.7133Z" fill="white"/>
<path d="M254.892 30.0974H253.826C253.692 30.0974 253.583 30.2059 253.583 30.3398V43.8496C253.583 43.9835 253.692 44.092 253.826 44.092H254.892C255.026 44.092 255.135 43.9835 255.135 43.8496V30.3398C255.135 30.2059 255.026 30.0974 254.892 30.0974Z" fill="white"/>
<path fill-rule="evenodd" clip-rule="evenodd" d="M254.274 27.7133C254.757 27.6661 255.187 28.0186 255.234 28.5012C255.281 28.9839 254.928 29.4127 254.445 29.4598C253.961 29.5069 253.532 29.1545 253.485 28.6718C253.437 28.1892 253.79 27.7604 254.274 27.7133Z" fill="white"/>
<path d="M254.892 30.0974H253.826C253.692 30.0974 253.583 30.2059 253.583 30.3398V43.8496C253.583 43.9835 253.692 44.092 253.826 44.092H254.892C255.026 44.092 255.135 43.9835 255.135 43.8496V30.3398C255.135 30.2059 255.026 30.0974 254.892 30.0974Z" fill="white"/>
<path fill-rule="evenodd" clip-rule="evenodd" d="M37.5109 18.709L39.0599 23.9014L44.2824 26.7233L49.4645 29.5227C60.7571 35.6243 64.9612 49.7178 58.8484 60.9939C52.7379 72.27 38.6238 76.4657 27.3311 70.3641C16.0453 64.2669 11.8411 50.1892 17.9337 38.9153L20.7507 33.7184L23.5767 28.5035L22.0277 23.311L18.9387 12.9531L17.8775 9.39715L13.8533 10.5937L11.1442 11.3996C10.164 11.6914 9.60196 12.7286 9.89422 13.7074C10.1865 14.6861 11.2251 15.2474 12.2054 14.9555L14.9144 14.1496L19.2017 28.5259L14.5772 37.0588L14.5704 37.07C7.45045 50.2072 12.347 66.6241 25.5034 73.7337C38.6597 80.8433 55.1007 75.9539 62.2207 62.8167C69.3407 49.6796 64.4441 33.2627 51.2878 26.1531L42.7312 21.5308L38.4439 7.1545L41.153 6.34858C42.1332 6.05674 42.6952 5.0196 42.403 4.04082C42.1107 3.06429 41.072 2.50082 40.0918 2.79266L37.3828 3.59858L33.3585 4.79511L34.4197 8.35103L37.5087 18.709H37.5109Z" fill="#44AEE3"/>
<path fill-rule="evenodd" clip-rule="evenodd" d="M28.6124 47.282C30.4829 46.7253 31.5485 44.7588 30.991 42.891C30.4334 41.0233 28.464 39.9592 26.5935 40.5159C24.7231 41.0727 23.6574 43.0392 24.215 44.9069C24.7725 46.7747 26.7419 47.8388 28.6124 47.282Z" fill="#16A99A"/>
<path fill-rule="evenodd" clip-rule="evenodd" d="M51.8365 35.9453C51.7129 35.8286 51.5735 35.5525 51.4431 35.6625C34.6042 50.059 30.1371 56.8027 22.2887 54.5174C21.6547 54.3333 21.0139 54.5106 20.5643 54.9933C20.1147 55.4759 19.9865 56.1292 20.2181 56.7465C21.8031 60.9759 24.8673 64.6778 29.1591 66.9967C38.5902 72.0927 50.3707 68.5884 55.4764 59.1733C59.7322 51.3206 57.9988 41.8359 51.8365 35.9453ZM46.949 65.0369C35.0651 70.3461 28.0687 62.911 28.0687 62.911L53.48 43.0504C53.48 43.0504 59.5613 57.4806 46.949 65.0369Z" fill="#16A99A"/>
<path fill-rule="evenodd" clip-rule="evenodd" d="M39.8199 41.2949C41.6904 40.7382 42.7561 38.7716 42.1985 36.9039C41.641 35.0361 39.6716 33.972 37.8011 34.5288C35.9306 35.0855 34.8649 37.052 35.4225 38.9198C35.98 40.7876 37.9494 41.8516 39.8199 41.2949Z" fill="#16A99A"/>
<path fill-rule="evenodd" clip-rule="evenodd" d="M28.0687 21.4882C29.5884 21.0369 30.454 19.4386 30.0021 17.921C29.5502 16.4035 27.9495 15.5392 26.4297 15.9904C24.91 16.4416 24.0444 18.04 24.4963 19.5576C24.9482 21.0751 26.5489 21.9394 28.0687 21.4882Z" fill="#16A99A"/>
<path fill-rule="evenodd" clip-rule="evenodd" d="M28.4192 11.3637C29.939 10.9124 30.8046 9.31408 30.3527 7.79653C29.9008 6.27898 28.3001 5.41469 26.7803 5.86592C25.2605 6.31714 24.395 7.91551 24.8469 9.43306C25.2988 10.9506 26.8995 11.8149 28.4192 11.3637Z" fill="#16A99A"/>
<path fill-rule="evenodd" clip-rule="evenodd" d="M21.3016 6.31939C22.8213 5.86817 23.6869 4.2698 23.235 2.75225C22.7831 1.2347 21.1824 0.370412 19.6626 0.821637C18.1429 1.27286 17.2773 2.87123 17.7292 4.38878C18.1811 5.90633 19.7818 6.77062 21.3016 6.31939Z" fill="#16A99A"/>
<path d="M15.6451 57.3684C14.0488 56.9104 12.6437 56.0327 10.9396 56.1157C8.94547 56.2145 6.91536 57.0069 5.26519 58.0957C1.18249 60.7896 -0.613807 65.5667 0.184298 70.3192C0.640679 73.0355 4.87401 72.3261 4.41763 69.5986C3.86008 66.2739 5.13929 62.9963 8.16085 61.3306C9.02191 60.8569 10.4562 60.2037 11.4724 60.3788C12.2998 60.5224 13.2777 61.1286 14.0961 61.3643C16.7332 62.1231 18.3002 58.1294 15.6451 57.3661V57.3684Z" fill="#44AEE3"/>
<path d="M61.861 42.5588C65.521 44.1437 69.7116 45.5984 73.5605 43.7127C76.8361 42.1098 78.2367 38.5965 77.0856 35.2022C76.2021 32.5937 72.3015 34.3896 73.1806 36.9847C73.9382 39.2184 71.1662 40.3071 69.4621 40.3251C67.3308 40.3476 65.3232 39.389 63.4077 38.5606C60.8673 37.4606 59.3295 41.4633 61.8587 42.5588H61.861Z" fill="#44AEE3"/>
<path d="M98.9044 46.6018C102.036 44.5882 105.44 43.1469 105.44 39.7774C105.44 25.4684 106.335 20.0492 102.814 20.0492C101.2 20.0492 99.6058 19.9347 98.2412 19.9684C98.2367 21.4927 98.2299 23.4502 98.2299 26.0251C98.2299 27.601 96.337 27.2463 94.3586 27.2374C94.453 32.0347 94.381 36.2574 92.0767 37.739C82.2004 44.0898 79.3587 46.7927 79.3587 43.2951C79.3587 30.9639 80.2647 27.3833 76.7328 27.3833C72.3961 27.3833 68.2009 26.5527 68.2009 30.0053C68.2009 33.458 68.192 36.5918 68.1807 39.499C68.6056 39.5731 69.0305 39.6135 69.4577 39.6067C70.4739 39.5955 71.8408 39.1398 72.3713 38.3945C72.6186 38.0443 72.6636 37.6694 72.5062 37.2092C71.9015 35.4245 73.039 33.8531 74.4846 33.3659C75.9302 32.8765 77.2791 33.5365 77.7647 34.9688C79.0439 38.7447 77.4455 42.6037 73.8776 44.3502C72.4837 45.0327 71.0539 45.3133 69.6106 45.3133C69.125 45.3133 68.6393 45.2729 68.1515 45.2145C67.9851 71.4349 67.6254 72.6943 70.8268 72.6943C75.1636 72.6943 79.3587 73.5249 79.3587 70.0723C79.3587 63.0974 78.628 59.638 81.5664 57.75C83.9877 56.1943 86.4022 54.0482 88.8573 56.0192C91.4224 58.08 94.2844 59.712 94.2844 62.9986C94.2844 67.9104 93.1873 73.2039 96.9102 73.2039C101.247 73.2039 105.442 74.0345 105.442 70.5818C105.442 58.3225 106.123 55.5859 103.396 53.3971C99.979 50.6539 95.993 48.4741 98.9066 46.5996L98.9044 46.6018ZM103.212 38.3967C103.212 38.5314 103.102 38.6392 102.969 38.6392H101.906C101.771 38.6392 101.663 38.5292 101.663 38.3967V24.8892C101.663 24.7545 101.773 24.6467 101.906 24.6467H102.969C103.104 24.6467 103.212 24.7567 103.212 24.8892V38.3967ZM102.351 22.2627C102.834 22.2155 103.264 22.568 103.311 23.0506C103.358 23.5333 103.005 23.962 102.522 24.0092C102.038 24.0563 101.609 23.7039 101.562 23.2212C101.515 22.7386 101.867 22.3098 102.351 22.2627Z" fill="#EE3063"/>
<path d="M97.2472 12.8453C97.6677 14.4571 97.553 15.4808 97.553 25.1496C97.553 26.7457 95.6128 26.3618 93.6074 26.3618C91.9753 26.3618 92.3934 25.2843 92.3934 15.8916C92.3934 14.2416 91.946 12.9688 90.3116 6.7055C89.9114 5.17224 89.0279 5.1857 88.4546 6.66285C88.4658 6.63366 85.1723 14.3539 85.1723 16.3518C85.1723 16.3204 85.224 24.4424 85.1048 24.4424H80.0127C79.6147 24.4424 80.3319 16.3137 79.4394 14.0082L76.5954 6.66285C75.1071 2.82183 74.0033 9.5206 72.9646 13.5053C72.5487 15.0969 72.6589 15.9118 72.6589 25.1496C72.6589 26.7457 70.7187 26.3618 68.7133 26.3618C67.0721 26.3618 67.4993 25.3561 67.4993 15.2316C67.4993 13.5996 67.6746 13.3526 70.7524 1.55346C71.1616 -0.0112343 72.5937 0.379378 78.4817 0.379378C80.0869 0.379378 80.242 1.78693 82.09 6.55958C82.715 8.17591 83.3805 5.48877 84.9205 1.51081C85.5027 0.00672488 86.8382 0.379378 92.7801 0.379378C94.4213 0.379378 94.1852 1.11121 97.2472 12.8453Z" fill="#44AEE3"/>
<path d="M115.356 0.0404022C116.977 0.0404022 116.57 4.26306 116.57 10.2031C116.57 11.8194 115.779 12.4188 111.209 18.2173C110.181 19.5194 110.458 21.3198 110.458 25.1496C110.458 26.7457 108.518 26.3618 106.512 26.3618C104.896 26.3618 105.298 24.6647 105.298 20.5206C105.298 18.9043 104.424 18.3924 99.3607 13.0922C98.2501 11.9294 98.5221 10.4365 98.5221 6.45632C98.5221 4.8602 100.462 5.24408 102.468 5.24408C104.077 5.24408 103.682 7.2353 103.682 8.93918C103.682 10.5286 104.925 11.4535 106.852 13.4716C108.043 14.7198 109.205 12.4255 110.658 10.5824C111.656 9.31632 111.409 5.18122 111.409 1.25265C111.409 -0.343475 113.349 0.0404022 115.354 0.0404022H115.356Z" fill="#44AEE3"/>
<path fill-rule="evenodd" clip-rule="evenodd" d="M70.9213 15.1284C71.2069 15.1014 71.4609 15.308 71.4879 15.5931C71.5149 15.8782 71.308 16.1318 71.0225 16.1588C70.737 16.1857 70.483 15.9792 70.456 15.6941C70.429 15.409 70.6358 15.1553 70.9213 15.1284Z" fill="white"/>
<path d="M71.1869 16.5359H70.7575C70.6234 16.5359 70.5146 16.6445 70.5146 16.7784V24.5569C70.5146 24.6908 70.6234 24.7994 70.7575 24.7994H71.1869C71.321 24.7994 71.4297 24.6908 71.4297 24.5569V16.7784C71.4297 16.6445 71.321 16.5359 71.1869 16.5359Z" fill="white"/>
<path fill-rule="evenodd" clip-rule="evenodd" d="M114.804 1.13817C115.089 1.11123 115.343 1.31776 115.37 1.60286C115.397 1.88796 115.19 2.14163 114.905 2.16857C114.619 2.19551 114.365 1.98898 114.338 1.70388C114.311 1.41878 114.518 1.1651 114.804 1.13817Z" fill="white"/>
<path d="M115.069 2.54572H114.64C114.506 2.54572 114.397 2.65426 114.397 2.78816V10.5667C114.397 10.7006 114.506 10.8092 114.64 10.8092H115.069C115.203 10.8092 115.312 10.7006 115.312 10.5667V2.78816C115.312 2.65426 115.203 2.54572 115.069 2.54572Z" fill="white"/>
</svg>
